<svg xmlns="http://www.w3.org/2000/svg" xmlns:xlink="http://www.w3.org/1999/xlink" data-name="Layer 1" width="667.44532" height="589.48587" viewBox="0 0 667.44532 589.48587"><path d="M699.18878,227.46306c-8.04694-26.95441-30.7807-44.551-58.25122-48.41126-.30219-.0426-.589.01367-.8899-.00574a8.68011,8.68011,0,0,0-1.18756-.27349c-37.778-4.88251-79.0177,3.86193-111.84076,24.3988-31.46228,19.68549-67.61309,30.793-104.72552,30.5462q-1.72879-.01145-3.47113.075c-28.56079,1.42511-53.76636,22.21533-61.48755,49.5606-1.01331,3.58777.75244,6.79352,3.59186,8.82673,4.98932,3.57348,8.3974,6.078,14.53607,7.37841q16.43014,3.48075,32.9726,6.40137V262.03075a15.70447,15.70447,0,0,1,15.68627-15.68628H639.59106a15.70448,15.70448,0,0,1,15.68628,15.68628V316.738a64.51829,64.51829,0,0,0,8.63245-3.39789,66.83714,66.83714,0,0,0,25.76849-22.487C702.15289,272.75279,705.44769,248.42662,699.18878,227.46306Z" transform="translate(-266.27734 -155.25706)" fill="#f2f2f2"/><path d="M608.4671,484.54808H417.99a16.59835,16.59835,0,0,1-16.57911-16.5791V394.05852a172.96506,172.96506,0,0,0-71.7163-6.286,8.68011,8.68011,0,0,0-1.18756.27349c-.30085.01941-.58771-.03686-.8899.00574-27.47052,3.86029-50.20428,21.45685-58.25122,48.41126-6.25891,20.96356-2.96411,45.28973,9.5105,63.39a66.83714,66.83714,0,0,0,25.76849,22.487c14.28736,6.88226,29.32532,7.39972,44.91919,7.88568a1018.27653,1018.27653,0,0,0,140.261-5.30163q34.38208-3.68766,68.47858-9.63837,17.4516-3.0541,34.788-6.72742c6.13867-1.30041,9.54675-3.80493,14.53607-7.37841,2.83942-2.03321,4.60517-5.239,3.59186-8.82673A65.80907,65.80907,0,0,0,608.4671,484.54808Z" transform="translate(-266.27734 -155.25706)" fill="#f2f2f2"/><path d="M625.32431,462.62108H438.38871a13.62481,13.62481,0,0,1-13.609-13.609V275.28913a13.62481,13.62481,0,0,1,13.609-13.609h186.9356a13.6248,13.6248,0,0,1,13.609,13.609V449.01205A13.6248,13.6248,0,0,1,625.32431,462.62108Z" transform="translate(-266.27734 -155.25706)" fill="#e6e6e6"/><path d="M585.97983,453.4416H447.57038a13.62481,13.62481,0,0,1-13.609-13.609V284.47592a13.62481,13.62481,0,0,1,13.609-13.609H616.14483a13.62481,13.62481,0,0,1,13.609,13.609V409.66757A43.82338,43.82338,0,0,1,585.97983,453.4416Z" transform="translate(-266.27734 -155.25706)" fill="#fff"/><circle cx="265.58027" cy="206.89718" r="61" fill="#6c63ff"/><path d="M557.5542,359.08519l-20.356-24.75391a6.00075,6.00075,0,0,0-9.14014-.15136l-21.76855,24.7539a6.00029,6.00029,0,0,0,9.01172,7.92481L526.564,354.05119v32.115a6,6,0,0,0,12,0V354.8853l9.72168,11.822a6,6,0,0,0,9.26856-7.62207Z" transform="translate(-266.27734 -155.25706)" fill="#fff"/></svg>